<svg xmlns="http://www.w3.org/2000/svg" viewBox="0 0 1514.27 1316.2"><defs><style>.cls-1,.cls-2,.cls-3{fill:#fff;}.cls-1,.cls-2,.cls-4{stroke:#fff;stroke-miterlimit:10;}.cls-2,.cls-4{stroke-width:0.5px;}</style></defs><g id="Capa_4" data-name="Capa 4"><path class="cls-1" d="M271.33,1434.11l20.17-135.54.72-42.49,35.63-17,84.78,8.64v27.64l344.94-79.93,52.94-443.75-6.44-20.25V697.38L935.13,625V432.28l9.31-7.48V383.49l37.3-24.34V334.71l4.33-3.69V211.67s21.41-9.19,33.57-10.81V185.28s18.26-5.64,30.69,0v14.33s20.62,3.23,33.57,12.06V328.78a35.28,35.28,0,0,0,6.44,5.93v24.44L1118,383.49v35l11.61,8.29v199.4l136.59,72.14V736l-6.44,17.49,55.13,447.79,328.41,74v-21.61l84.68-7.36,35.59,14.49.72,36.23,20.15,115.58L1742,1406l-28.2-4.4L1129,1354.4l-98.26,7.42-95.61-10.39-591.08,68.64Z" transform="translate(-270.73 -118.53)"/><polygon class="cls-1" points="511.51 1071.19 554.82 675.08 730.32 591.85 730.32 947.33 665.72 967.58 665.14 1035.41 511.51 1071.19"/><polygon class="cls-1" points="791.47 947.86 791.07 594.4 974.61 677.01 1020.4 1077.45 857.93 1040.94 857.93 968.54 791.47 947.86"/></g><g id="calcado"><polygon class="cls-2" points="761.62 938.76 858.27 968.22 858.27 1040.94 1442.78 1172.57 1442.78 1283.03 866.55 1235.16 761.31 1243.44 668.65 1232.4 74.01 1302.36 74.01 1172.57 665.89 1035.41 665.89 967.3 761.62 938.76"/><polyline class="cls-2" points="1372.52 1156.74 1372.52 1135.13 1457.2 1127.77 1492.79 1142.26 1492.79 1174.41 1513.66 1294.07 1442.78 1283.03"/><path class="cls-2" d="M1764.24,1297,1728,1291.1c-.16,0,14,114.9,14,114.9" transform="translate(-270.73 -118.53)"/><line class="cls-2" x1="1442.78" y1="1172.57" x2="1457.27" y2="1172.57"/><polyline class="cls-2" points="141.9 1154.54 141.9 1129.19 57.12 1120.56 21.49 1137.55 21.49 1175.25 0.6 1315.58 71.56 1302.63"/><path class="cls-2" d="M291.5,1298.57l36.28-7c.16,0-14,134.75-14,134.75" transform="translate(-270.73 -118.53)"/><line class="cls-2" x1="71.56" y1="1173.09" x2="57.05" y2="1173.09"/><polyline class="cls-2" points="486.83 1076.9 539.78 633.16 758.39 526.38 988.98 635 1044.11 1082.79"/><polyline class="cls-2" points="758.39 526.38 761.62 938.76 761.31 1243.44"/><polygon class="cls-2" points="533.34 612.91 533.34 578.85 758.39 454.58 995.42 579.77 995.42 617.51 758.39 494.17 533.34 612.91"/><line class="cls-2" x1="539.78" y1="633.16" x2="533.34" y2="612.91"/><line class="cls-2" x1="988.98" y1="635" x2="995.42" y2="617.51"/><polyline class="cls-2" points="664.4 506.48 664.4 313.75 717.08 271.41 807.28 271.41 858.83 308.23 858.83 507.63"/><polyline class="cls-2" points="673.71 306.27 673.71 264.96 717.43 236.43 814.09 236.43 847.22 264.96 847.22 299.94"/><path class="cls-2" d="M981.74,359.15V334.71s55.21-53.39,108.6,0v24.44" transform="translate(-270.73 -118.53)"/><path class="cls-2" d="M986.07,331V253.4s45.36-54,97.83,0v75.38" transform="translate(-270.73 -118.53)"/><path class="cls-2" d="M986.07,253.4V211.67s53.95-28.54,97.83,0V253.4" transform="translate(-270.73 -118.53)"/><path class="cls-2" d="M1019.64,200.86V185.28s19.15-5.52,30.69,0v14.33" transform="translate(-270.73 -118.53)"/><line class="cls-3" x1="764.25" y1="64.36" x2="764.25"/><path class="cls-3" d="M1035,182.89c-.83-2.68-1.42-5.37-2-8,0-2.68,0-5.36,0-8V126.57c.61-2.68,1.2-5.36,2-8,.81,2.68,1.4,5.36,2,8V166.8c0,2.68,0,5.36,0,8C1036.41,177.52,1035.82,180.21,1035,182.89Z" transform="translate(-270.73 -118.53)"/><line class="cls-2" x1="858.27" y1="1040.94" x2="858.27" y2="1235.87"/><line class="cls-2" x1="665.89" y1="1035.41" x2="664.4" y2="1232.9"/><polyline class="cls-4" points="791.47 947.86 791.47 593.89 974.86 677.34 1020.4 1077.45"/><polyline class="cls-4" points="730.41 948.07 730.41 591.85 555.05 674.99 511.51 1073.61"/><polygon class="cls-2" points="781.78 466.93 758.39 454.58 735.21 467.38 738.61 288.9 782.33 288.9 781.78 466.93"/><polyline class="cls-2" points="711 480.48 711 299.94 679.08 320.51 679.08 498.38"/><polyline class="cls-2" points="813.16 483.44 813.16 299.94 845.09 320.85 845.09 501.63"/></g></svg>