<svg xmlns="http://www.w3.org/2000/svg" viewBox="0 0 1622.89 1700.85"><defs><style>.cls-1{fill:#fff;}.cls-2{fill:none;stroke:#000;stroke-miterlimit:10;stroke-width:0.5px;}</style></defs><g id="Capa_3" data-name="Capa 3"><path d="M1300.94,1540.86c-21.84,23.39-44,46.48-66.14,69.58L1201.45,1645c-11.11,11.51-22.32,22.91-33.48,34.37l-16.76,17.17-16.83,17.1-33.68,34.18-67.66,68-3.54,3.56-3.53-3.56-67.8-68.16-33.74-34.25-16.87-17.12-16.79-17.21-33.55-34.43-33.41-34.57c-22.17-23.15-44.37-46.28-66.24-69.73,23.44,21.88,46.57,44.08,69.72,66.25L861.86,1640l34.43,33.55,17.21,16.79,17.12,16.87L964.87,1741l68.17,67.8H1026l68-67.66,34.18-33.69,17.1-16.82,17.17-16.76c11.46-11.16,22.87-22.38,34.37-33.49l34.51-33.35C1254.45,1584.85,1277.54,1562.7,1300.94,1540.86Z" transform="translate(-218.07 -118.53)"/><path d="M419,1201.79q-25.1-24.36-50-48.89t-49.88-49l-49.76-49.15-49.71-49.21-1.55-1.54,1.55-1.56,53.62-53.92L327,894.67l53.81-53.73,53.88-53.66q53.87-53.67,108.09-107l27-26.72L596.94,627q27.15-26.61,54.38-53.15-26.48,27.28-53.15,54.38l-26.62,27.15-26.71,27.06q-53.46,54.08-107,108.09L384.2,844.38l-53.73,53.8-53.83,53.71-53.92,53.62v-3.1l49.21,49.71,49.15,49.76q24.62,24.84,49,49.88T419,1201.79Z" transform="translate(-218.07 -118.53)"/><path d="M1640,1201.27q24.36-25.1,48.88-50t49-49.88l49.16-49.76,49.2-49.71v3.1l-53.92-53.61-53.82-53.72-53.73-53.8L1621.17,790q-53.67-53.87-107-108.09l-26.72-27-26.61-27.16q-26.61-27.15-53.15-54.38,27.29,26.48,54.38,53.15l27.16,26.61,27,26.72q54.09,53.44,108.09,107l53.88,53.66,53.8,53.73L1785.79,948l53.61,53.92,1.56,1.56-1.56,1.54-49.7,49.21-49.76,49.15q-24.84,24.62-49.89,49T1640,1201.27Z" transform="translate(-218.07 -118.53)"/></g><g id="Capa_4" data-name="Capa 4"><path d="M271.33,1434.11l20.17-135.54.72-42.49,35.63-17,84.78,8.64v27.64l344.94-79.93,52.94-443.75-6.44-20.25V697.38L935.13,625V432.28l9.31-7.48V383.49l37.3-24.34V334.71l4.33-3.69V211.67s21.41-9.19,33.57-10.81V185.28s18.26-5.64,30.69,0v14.33s20.62,3.23,33.57,12.06V328.78a35.28,35.28,0,0,0,6.44,5.93v24.44L1118,383.49v35l11.61,8.29v199.4l136.59,72.14V736l-6.44,17.49,55.13,447.79,328.41,74v-21.61l84.68-7.36,35.59,14.49.72,36.23,20.15,115.58L1742,1406l-28.2-4.4L1129,1354.4l-98.26,7.42-95.61-10.39-591.08,68.64Z" transform="translate(-218.07 -118.53)"/><polygon class="cls-1" points="564.18 1071.19 607.48 675.08 782.98 591.85 782.98 947.33 718.38 967.58 717.81 1035.41 564.18 1071.19"/><polygon class="cls-1" points="844.13 947.86 843.73 594.4 1027.27 677.01 1073.06 1077.45 910.59 1040.94 910.59 968.54 844.13 947.86"/></g><g id="calcado"><polygon class="cls-2" points="814.28 938.76 910.93 968.22 910.93 1040.94 1495.44 1172.57 1495.44 1283.03 919.22 1235.16 813.97 1243.44 721.31 1232.4 126.67 1302.36 126.67 1172.57 718.55 1035.41 718.55 967.3 814.28 938.76"/><polyline class="cls-2" points="1425.18 1156.74 1425.18 1135.13 1509.86 1127.77 1545.45 1142.26 1545.45 1174.41 1566.32 1294.07 1495.44 1283.03"/><path class="cls-2" d="M1764.24,1297,1728,1291.1c-.16,0,14,114.9,14,114.9" transform="translate(-218.07 -118.53)"/><line class="cls-2" x1="1495.44" y1="1172.57" x2="1509.93" y2="1172.57"/><polyline class="cls-2" points="194.56 1154.54 194.56 1129.19 109.78 1120.56 74.15 1137.55 74.15 1175.25 53.26 1315.58 124.22 1302.63"/><path class="cls-2" d="M291.5,1298.57l36.28-7c.16,0-14,134.75-14,134.75" transform="translate(-218.07 -118.53)"/><line class="cls-2" x1="124.22" y1="1173.09" x2="109.71" y2="1173.09"/><polyline class="cls-2" points="539.5 1076.9 592.44 633.16 811.06 526.38 1041.64 635 1096.77 1082.79"/><polyline class="cls-2" points="811.06 526.38 814.28 938.76 813.97 1243.44"/><polygon class="cls-2" points="586 612.91 586 578.85 811.06 454.58 1048.08 579.77 1048.08 617.51 811.06 494.17 586 612.91"/><line class="cls-2" x1="592.44" y1="633.16" x2="586" y2="612.91"/><line class="cls-2" x1="1041.64" y1="635" x2="1048.08" y2="617.51"/><polyline class="cls-2" points="717.07 506.48 717.07 313.75 769.74 271.41 859.95 271.41 911.49 308.23 911.49 507.63"/><polyline class="cls-2" points="726.38 306.27 726.38 264.96 770.1 236.43 866.75 236.43 899.88 264.96 899.88 299.94"/><path class="cls-2" d="M981.74,359.15V334.71s55.21-53.39,108.6,0v24.44" transform="translate(-218.07 -118.53)"/><path class="cls-2" d="M986.07,331V253.4s45.36-54,97.83,0v75.38" transform="translate(-218.07 -118.53)"/><path class="cls-2" d="M986.07,253.4V211.67s53.95-28.54,97.83,0V253.4" transform="translate(-218.07 -118.53)"/><path class="cls-2" d="M1019.64,200.86V185.28s19.15-5.52,30.69,0v14.33" transform="translate(-218.07 -118.53)"/><path d="M1035,182.89c-.83-2.68-1.42-5.37-2-8,0-2.68,0-5.36,0-8V126.57c.61-2.68,1.2-5.36,2-8,.81,2.68,1.4,5.36,2,8V166.8c0,2.68,0,5.36,0,8C1036.41,177.52,1035.82,180.21,1035,182.89Z" transform="translate(-218.07 -118.53)"/><line class="cls-2" x1="910.93" y1="1040.94" x2="910.93" y2="1235.87"/><line class="cls-2" x1="718.55" y1="1035.41" x2="717.06" y2="1232.9"/><polyline class="cls-2" points="844.13 947.86 844.13 593.89 1027.53 677.34 1073.06 1077.45"/><polyline class="cls-2" points="783.07 948.07 783.07 591.85 607.71 674.99 564.18 1073.61"/><polygon class="cls-2" points="834.44 466.93 811.06 454.58 787.88 467.38 791.27 288.9 834.99 288.9 834.44 466.93"/><polyline class="cls-2" points="763.67 480.48 763.67 299.94 731.74 320.51 731.74 498.38"/><polyline class="cls-2" points="865.83 483.44 865.83 299.94 897.75 320.85 897.75 501.63"/></g></svg>